<svg width="23" height="26" viewBox="0 0 23 26" fill="none" xmlns="http://www.w3.org/2000/svg">
<path d="M2 7V24.3413" stroke="#001A67" stroke-width="3" stroke-linecap="round"/>
<path d="M10 7V24.3413" stroke="#001A67" stroke-width="3" stroke-linecap="round"/>
<path d="M2 0.566513C1.17157 0.566512 0.500001 1.23808 0.5 2.06651C0.499999 2.89494 1.17157 3.56651 2 3.56651L2 0.566513ZM19.9949 8.22566H21.4949C21.4949 8.19416 21.4939 8.16266 21.4919 8.13122L19.9949 8.22566ZM12.6124 14L12.6124 15.5L12.6124 15.5L12.6124 14ZM2 3.56651C5.15507 3.56652 9.29768 3.28482 12.8232 3.88227C14.5663 4.17767 15.9715 4.66487 16.9381 5.38225C17.8403 6.05176 18.4116 6.95281 18.4979 8.3201L21.4919 8.13122C21.3475 5.84153 20.3039 4.1442 18.726 2.97318C17.2126 1.85004 15.2725 1.25458 13.3244 0.924439C9.46736 0.270803 4.84322 0.566516 2 0.566513L2 3.56651ZM18.4949 8.22566C18.4949 8.71113 18.5682 9.67957 17.9829 10.591C17.4783 11.3768 16.203 12.4999 12.6123 12.5L12.6124 15.5C16.8657 15.4999 19.2816 14.1208 20.5073 12.212C21.6523 10.4288 21.4949 8.51011 21.4949 8.22566H18.4949ZM12.6124 12.5H2.46141V15.5H12.6124V12.5Z" fill="#001A67"/>
<path d="M14 14C14.8485 17.1884 17.4364 23.6522 21 24" stroke="#001A67" stroke-width="3" stroke-linecap="round"/>
</svg>
